# xmcd
#
# Track frame offsets: 
#        150
#        44500
#        76477
#        109570
#        147280
#        181130
#        213572
#        252742
#
# Disc length: 3839 seconds
#
# Revision: 1
# Processed by: cddbd v1.5.2PL0 Copyright (c) Steve Scherf et al.
# Submitted via: ExactAudioCopyFreeDBPlugin 1.0
#
DISCID=720efd08
DTITLE=Stanley Turrentine - Don't Mess With Mister T. (2001 Remaster)
DYEAR=1973
DGENRE=Jazz
TTITLE0=Don't Mess With Mister T.
TTITLE1=Two For T
TTITLE2=Too Blue
TTITLE3=I Could Never Repay Your Love
TTITLE4=Pieces Of Dreams
TTITLE5=Don't Mess With Mister T
TTITLE6=Mississippi City Strut
TTITLE7=Harlem Dawn
EXTD=
EXTT0=
EXTT1=
EXTT2=
EXTT3=
EXTT4=
EXTT5=
EXTT6=
EXTT7=
PLAYORDER=
